<svg width="240" height="60" viewBox="0 0 240 60" fill="none" xmlns="http://www.w3.org/2000/svg">
  <!-- Значок (Щит + Камера) -->
  <g transform="translate(10, 10)">
    <!-- Внешний черный щит -->
    <path fill-rule="evenodd" clip-rule="evenodd" d="M20 0L4 6V18C4 28 11 36 20 39C29 36 36 28 36 18V6L20 0Z" fill="#000000"/>
    
    <!-- Белый глаз / линза внутри -->
    <path fill-rule="evenodd" clip-rule="evenodd" d="M20 12C14 12 9.5 15.5 8 20C9.5 24.5 14 28 20 28C26 28 30.5 24.5 32 20C30.5 15.5 26 12 20 12ZM20 25C17.2386 25 15 22.7614 15 20C15 17.2386 17.2386 15 20 15C22.7614 15 25 17.2386 25 20C25 22.7614 22.7614 25 20 25Z" fill="#FFFFFF"/>
    
    <!-- Внутренний черный зрачок -->
    <circle cx="20" cy="20" r="3" fill="#000000"/>
  </g>

  <!-- Текстовый блок -->
  <text x="62" y="31" font-family="-apple-system, BlinkMacSystemFont, 'SF Pro Display', 'Segoe UI', Roboto, sans-serif" font-weight="900" font-size="16" letter-spacing="-0.5" fill="#000000">SAFEPROCTOR</text>
  <text x="62" y="44" font-family="-apple-system, BlinkMacSystemFont, 'SF Pro Text', 'Segoe UI', Roboto, sans-serif" font-weight="700" font-size="9" letter-spacing="2" fill="#737373">STUDIO</text>
</svg>
